<svg width="10" height="10" viewBox="0 0 10 10" fill="none" xmlns="http://www.w3.org/2000/svg">
<path fill-rule="evenodd" clip-rule="evenodd" d="M10 5.51184C9.96982 5.70988 9.94566 5.90881 9.90859 6.10422C9.71114 7.14726 9.22054 8.03011 8.48939 8.7774C7.96861 9.30904 7.35213 9.68577 6.65804 9.93311C6.63304 9.94191 6.60716 9.95159 6.58216 9.95687C6.37695 10.0062 6.24417 9.90318 6.2433 9.69018C6.24158 9.23687 6.24676 8.78269 6.24072 8.33026C6.23814 8.17622 6.23125 8.01602 6.18642 7.87166C6.1321 7.69562 6.03466 7.53279 5.95534 7.36555C6.12261 7.33298 6.32005 7.30394 6.51232 7.25465C7.02534 7.12438 7.47975 6.89023 7.78928 6.43165C7.99104 6.13326 8.09363 5.79262 8.14364 5.4379C8.20399 5.01716 8.23071 4.59202 8.07983 4.18801C7.99792 3.96796 7.8617 3.76728 7.73926 3.56483C7.70132 3.50146 7.67718 3.45657 7.70219 3.37911C7.83583 2.97069 7.78496 2.5702 7.6358 2.17763C7.62459 2.14946 7.57371 2.11513 7.54526 2.11865C7.39696 2.1389 7.24004 2.14682 7.10381 2.20491C6.83997 2.31934 6.58993 2.46633 6.33127 2.59396C6.27867 2.61949 6.20796 2.63709 6.1545 2.62389C5.69839 2.51034 5.23539 2.45753 4.76721 2.49274C4.47061 2.51475 4.17486 2.57283 3.88084 2.62213C3.79462 2.63709 3.72736 2.63621 3.64976 2.5834C3.34281 2.37303 3.01001 2.21547 2.64788 2.12833C2.41767 2.07376 2.3642 2.10545 2.30126 2.33078C2.19952 2.69606 2.17624 3.06047 2.30471 3.42575C2.31505 3.45304 2.30299 3.50234 2.28316 3.52522C1.83739 4.03926 1.76668 4.65012 1.83566 5.30059C1.8667 5.59546 1.94086 5.87801 2.05726 6.14823C2.31593 6.74589 2.8022 7.05748 3.38937 7.23C3.60924 7.29514 3.83858 7.32594 4.07655 7.37523C3.9067 7.55655 3.81099 7.76957 3.77564 8.01163C3.77133 8.03715 3.736 8.06708 3.70841 8.07764C3.15142 8.28537 2.66683 8.22463 2.33747 7.66394C2.16157 7.36291 1.92016 7.15167 1.56924 7.1103C1.4925 7.10149 1.40888 7.14815 1.32956 7.16927C1.37181 7.23441 1.39938 7.3233 1.45802 7.36027C1.79083 7.5636 1.96069 7.88312 2.10468 8.23168C2.2366 8.55207 2.50647 8.70522 2.82636 8.76772C3.13072 8.82757 3.43679 8.83726 3.75754 8.75716C3.75754 8.92352 3.75754 9.07755 3.75754 9.23071C3.7584 9.38562 3.76187 9.54142 3.76014 9.69545C3.75842 9.89966 3.62219 10.0158 3.42905 9.95687C3.24454 9.90054 3.06174 9.83189 2.8893 9.74563C1.33386 8.96665 0.388 7.70971 0.0672554 5.96779C0.0396645 5.81639 0.0215554 5.66324 0 5.51096C0 5.24778 0 4.98371 0 4.72053C0.0267287 4.53745 0.0482851 4.35438 0.0819116 4.17217C0.238835 3.30693 0.590635 2.53059 1.14331 1.85723C1.915 0.917174 2.88671 0.315109 4.07484 0.0932974C4.29471 0.052808 4.51717 0.0308072 4.7379 0C4.91207 0 5.08709 0 5.26126 0C5.41215 0.0176041 5.56304 0.0299253 5.71134 0.0519304C6.64943 0.190123 7.48405 0.571249 8.20744 1.19267C9.1145 1.97253 9.68615 2.95925 9.91033 4.15105C9.9474 4.34733 9.96982 4.54625 10 4.74342C10 5.00044 10 5.25658 10 5.51184Z" fill="#414042"/>
</svg>
