<svg width="9" height="12" viewBox="0 0 9 12" fill="none" xmlns="http://www.w3.org/2000/svg">
<path d="M8 4.37315C8 2.51055 6.43359 1 4.50001 1C2.56737 1 1 2.51055 1 4.37315C1 4.9057 1.13883 5.40234 1.36713 5.84957L3.7219 10.5249C3.86448 10.8033 4.15707 11 4.50092 11C4.84477 11 5.13739 10.8033 5.27903 10.5249L7.63378 5.84957C7.86115 5.40144 8 4.9048 8 4.37315ZM4.50001 6.05972C3.53276 6.05972 2.74999 5.30444 2.74999 4.37315C2.74999 3.44185 3.53276 2.68747 4.50001 2.68747C5.46727 2.68747 6.25095 3.44275 6.25095 4.37315C6.25095 5.30444 5.46727 6.05972 4.50001 6.05972Z" stroke="#414042" stroke-miterlimit="10"/>
</svg>
