<svg width="11" height="11" viewBox="0 0 11 11" fill="none" xmlns="http://www.w3.org/2000/svg">
<path d="M8.01276 6.63845C7.30688 6.5918 6.90882 8.14039 6.42157 7.98652C6.37059 7.96568 6.3196 7.94284 6.26862 7.92001C6.17548 7.87435 6.08332 7.82868 5.9892 7.786C4.4245 6.98788 4.12744 6.71986 3.46666 5.06505C3.45489 4.59948 4.85785 4.20042 4.81275 3.51646C4.79216 3.172 3.71274 1 3.19215 1C1.83333 1 1 2.19519 1 3.71996C1 4.15078 1.09509 4.55183 1.25195 4.91614C2.15097 8.08777 3.69609 9.49441 6.85393 10.3412C6.86667 10.3451 6.88236 10.3422 6.89608 10.3451C7.18334 10.4394 7.48923 10.5 7.81374 10.5C9.31962 10.5 10.5 9.65721 10.5 8.28135C10.498 7.75225 8.35295 6.66129 8.01276 6.63845Z" stroke="#414042" stroke-miterlimit="10"/>
</svg>
